<svg xmlns="http://www.w3.org/2000/svg" xmlns:xlink="http://www.w3.org/1999/xlink" viewBox="0 0 188.03 810.05"><defs><style>.cls-1{fill:url(#linear-gradient);}.cls-2{fill:#2c2c2c;}.cls-3{fill:#484848;}.cls-4{fill:#535353;}.cls-5{fill:#545454;}.cls-6{fill:#838b88;}.cls-7{fill:#4f4f4f;}.cls-8{fill:#646564;}.cls-9{fill:#7d8381;}.cls-10{fill:#5c5e5d;}.cls-11{fill:gray;}.cls-12{fill:#373737;}.cls-13{fill:#c3c3c3;}.cls-14{fill:#454545;}.cls-15{fill:#515353;}.cls-16{fill:#8c9692;}.cls-17{fill:#4c4c4c;}.cls-18{fill:#5d5d5d;}.cls-19{fill:#bcbcbc;}.cls-20{fill:#dedede;}.cls-21{fill:#4d4b4b;}.cls-22{fill:#393939;}.cls-23{fill:#6e6e6e;}.cls-24{fill:#f4f4f4;}.cls-25{fill:#cacecc;}.cls-26{fill:#f5f5f5;}.cls-27{fill:#6c6c6c;}.cls-28{fill:#727272;}.cls-29{fill:#767a79;}.cls-30{fill:#989e9c;}.cls-31{fill:#7d8683;}.cls-32{fill:#69706e;}.cls-33{fill:#737c79;}.cls-34{fill:#2e2e2e;}.cls-35{fill:#323132;}.cls-36{fill:#2a2a2a;}.cls-37{fill:#939a97;}.cls-38{fill:#9aa3a0;}.cls-39{fill:#767475;}.cls-40{fill:#5a5a5a;}.cls-41{fill:#272727;}.cls-42{fill:#414141;}.cls-43{fill:#404040;}.cls-44{fill:#69726f;}.cls-45{fill:#7a8380;}.cls-46{fill:#6e7774;}.cls-47{fill:#b1bab7;}.cls-48{fill:#252525;}.cls-49{fill:#595959;}.cls-50{fill:#3b3b3b;}</style><linearGradient id="linear-gradient" x1="94.02" y1="810.05" x2="94.02" y2="2" gradientUnits="userSpaceOnUse"><stop offset="0" stop-color="#131313"/><stop offset="0.26" stop-color="#1d1d1d"/><stop offset="0.49" stop-color="#2a2a2a"/></linearGradient></defs><title>Asset 2</title><g id="Layer_2" data-name="Layer 2"><g id="Layer_11" data-name="Layer 11"><path class="cls-1" d="M186.67,666.65c-1.15-21.93-7.39-36.36-13-45.56-5-8.2-15-21.45-19.95-27.93a215.21,215.21,0,0,1-14.64-21.62,71.63,71.63,0,0,1-6.65-13.63,63.18,63.18,0,0,1-3.32-17.62c-1.76-30.49-1-45.23-1-45.23,1.75-33.87,2.62-50.81,3.44-58.31,2.88-26.55,4.67-43.12,10.08-58.63.54-1.53,3.4-9.61,6.43-20.62A161.32,161.32,0,0,0,152.53,338a118.54,118.54,0,0,0,1.22-19.84c5.15-12.9,8.78-24.1,11.3-32.7,4.16-14.18,7.19-24.7,8.54-39.13.55-5.89-.05-3.06.44-24.72.57-25,1.45-31.74-1.33-43.12-2.07-8.51-3.3-13.54-7.76-18.4-3.5-3.82-10.42-7.12-24.12-13.55-7.79-3.66-8.32-3.66-12.12-5.74-9.51-5.2-14.44-7.9-17.44-12.95-5-8.47-1.81-18.9-.3-23a48.43,48.43,0,0,0,7.92-1.09c3.52-.77,6.61-1.46,8.26-2.68,3.91-2.89,2.52-10.82-2.21-30.59-5.69-23.78-7.57-28.52-12.31-33.37a37.43,37.43,0,0,0-13-8.53c-1.77-6.64-3.26-12-4.32-15.75S92.25,2,92.25,2H90.64L87.13,13.65Q84.91,21,82.69,28.28a42.35,42.35,0,0,0-12.3,9c-2.69,2.86-6.58,7.84-13,34.36-4.3,17.84-4.8,25-1.05,28.07A17.33,17.33,0,0,0,61.19,102a32.83,32.83,0,0,0,11.86,2c1.42,3.66,4.89,14.11,0,23.39-3,5.67-7.93,8.7-15.08,13.08-7.5,4.6-8.65,3.7-16.73,8s-18.71,9.9-24.72,21.06c-2.25,4.17-2.95,7.46-4.21,13.64-2,9.74-2.27,18.31-1.22,36.35,1.13,19.59,1.7,29.38,3.77,39,1.64,7.67,3.94,14.76,8.53,28.93,3.66,11.31,7,20.6,9.31,27.05a89.14,89.14,0,0,0,1.11,24.94c1.76,9.33,4.21,13.83,8.42,27.38,3,9.69,4.71,16.82,6.66,25.05,4.72,20,6.69,35.55,8.53,50.44,2.12,17.14,2.94,29.75,3.81,43.1.23,3.56.55,12.83,1.18,31.39.48,14.15.69,22.29-2.44,32.51a67.72,67.72,0,0,1-5.32,12.6,152.59,152.59,0,0,1-9.31,17.29,139.15,139.15,0,0,1-15,19.62A103.08,103.08,0,0,0,1.78,665.32Q1.27,728.67.78,792c-.74,2.54-1.56,6.91.66,10.31,2.9,4.44,9.42,4.84,12.31,5,41.16,2,61.73,3,77.81,2.66,14.21-.33,52.15-.65,68-2,6.41-.53,3.84-.79,14.44-2,7.38-.86,10-.89,12-3,3.11-3.36,2-9.28,1-12.63Z"/><path class="cls-2" d="M57.9,66.88S67,60.22,91.56,60.22s33.17,8.3,33.17,8.3l-3,3.45s-6.1-9.75-30.39-9.31-27.91,8.2-27.91,8.2Z"/><path class="cls-3" d="M124.77,68.52c-5.69-23.78-7.56-28.52-12.3-33.37a37.61,37.61,0,0,0-13-8.53c-1.78-6.64-3.27-12-4.33-15.75S92.09,0,92.09,0H90.48C89.31,3.88,88.15,7.76,87,11.65Q84.77,19,82.54,26.28a42.24,42.24,0,0,0-12.31,9c-2.59,2.76-6.3,7.49-12.3,31.63,0,0,12.24-7.22,33.63-6.67s26.18,4.62,33.21,8.3"/><polygon class="cls-4" points="91.31 42.04 95.82 35.61 92.23 35.61 91.31 14.11 90.87 35.31 87.13 35.06 91.31 42.04"/><path class="cls-5" d="M98.43,62.86s13.34.33,20.66,6.49c0,0,.48,29.13-8.29,33.53s-19.48,4.29-19.48,4.29S79,106.13,72.89,102s-9.15-25.75-9.48-31.13c0,0,2.6-6.14,20.06-7.75,0,0,3-.28,7.85-.45A40.89,40.89,0,0,1,98.43,62.86Z"/><path class="cls-6" d="M91.32,62.66v44.51a38.81,38.81,0,0,1-3.92-.39,32.9,32.9,0,0,1-3.69-.79c-2.83-.86-3-18.86-.24-42.88C83.47,63.11,88,62.62,91.32,62.66Z"/><path class="cls-7" d="M72.89,102A32.83,32.83,0,0,1,61,100a17.25,17.25,0,0,1-4.81-2.31c-3.76-3.08-3.25-10.23,1-28.07l.67-2.73,5.48,4a68.31,68.31,0,0,0,2.48,14.56,75.43,75.43,0,0,0,5.77,14.26C72.16,100.65,72.59,101.44,72.89,102Z"/><path class="cls-7" d="M110.8,102.88a48.39,48.39,0,0,0,7.93-1.09c3.52-.77,6.61-1.46,8.26-2.68,3.9-2.89,2.51-10.82-2.22-30.59L121.71,72a22.61,22.61,0,0,0-2.62-2.62S118.74,99.2,110.8,102.88Z"/><path class="cls-8" d="M63.41,70.86s3-6.1,20.06-7.75L83.71,106a35.68,35.68,0,0,1-5.95-1.65A19,19,0,0,1,72.89,102c-1-.75-3.53-2.92-4.65-7.76C68.24,94.23,66.1,89.92,63.41,70.86Z"/><path class="cls-9" d="M91.32,62.66v44.51s5.84-.08,7.67-.68V63.11A65.79,65.79,0,0,0,91.32,62.66Z"/><path class="cls-7" d="M72.89,102s15.2,9.79,37.91.89c0,0-7.13,6.5-19.45,6.56S72.89,102,72.89,102Z"/><path class="cls-10" d="M66.76,219.84l22-2.12,26.19.4,15.79,1.25L127.2,232l.92,10.91L125,257.53l.75,10.81-4.74,11.14-.67,7.4,5.82,10.47,2.58,5.32s3.32,3.49-3.83,2.75-10.89-3.23-16.71-3.2-13.88,3.24-19.62,3.3-13.88-.19-16.29-.52-9.06-1.58-9.06-1.58a3.28,3.28,0,0,0-3.08,2.91c-.25,2.74.83,12.72,2.16,14.05s-5.82-4.66-5.82-4.66l-7.21-13.05,3.47-14.82,4-23.25-.5-17.3L54.7,227Z"/><path class="cls-11" d="M72.89,102s3.27,5.75,3.87,7,7.85,3,14.49,3,17.44-3,17.44-3,.92-4.26,2.11-6.12a30.93,30.93,0,0,1-19.45,6.56C79.16,109.48,72.89,102,72.89,102Z"/><path class="cls-12" d="M76.76,109s3.5,13.07-10.14,24.38-32.48,17.18-32.48,17.18-20.06,8.87-21.61,31-.89,61.74,0,65.29,23.83,84.46,32.36,94.44c0,0-13-30.59-6.87-35.25s12.2,1.33,12.2,1.33,7.42-32.26,5-54.2-1.66-26.5-4.1-33.37-7.65-30.48-7.2-36.58-5.88-4.54-6.43.56c-.89,8.2-2.94,17.66.88,31.92,4.75,17.7,6.18,16.39,8.64,27.88C49.85,257,49.45,266.1,49,275c-.93,18.07-4.68,20.91-6.54,21.84a10.56,10.56,0,0,1-9-.28c-3.33-1.69-5-5.34-6.49-9-2.44-6.1-8.32-27.49-9.54-32.37a113.83,113.83,0,0,1-2.32-19.51c.17-5-1.13-15.76-.67-30.81.26-8.58,1.16-26.83,6.7-36.37a27.71,27.71,0,0,1,6.32-7.35,23.58,23.58,0,0,1,7.16-3.72c8.86-3,26.82-6.77,33.92-7.21,0,0-9.32-2.88-3.88-7.76s17.71-11.89,16.44-31.66A14.25,14.25,0,0,1,76.76,109Z"/><path class="cls-13" d="M37.47,183.82a58.32,58.32,0,0,0-1.22,19.5,66.25,66.25,0,0,0,2.1,12.42c4.75,17.7,6.18,16.39,8.64,27.88C49.85,257,49.45,266.1,49,275c-.93,18.07-4.68,20.91-6.54,21.84a10.56,10.56,0,0,1-9-.28c-3.33-1.69-5-5.34-6.49-9-2.44-6.1-8.32-27.49-9.54-32.37a113.83,113.83,0,0,1-2.32-19.51c.17-5-1.13-15.76-.67-30.81.26-8.58,1.16-26.83,6.7-36.37,1.26-2.17,2.66-5.9,6.32-7.35a10.19,10.19,0,0,1,9.26,1.15,11.12,11.12,0,0,1,4.44,11.2A53.56,53.56,0,0,0,37.47,183.82Z"/><path class="cls-14" d="M38,246.67c-.15-3.26-.86-4.87-.11-8,.21-.87.82-3.4,1.78-3.44,1.36-.06,2.63,4.92,3.21,7.2a51.25,51.25,0,0,1,1.44,8.87c.75,10.6-.6,11-.11,20.4.27,5.21.86,8.42-.78,9.31-1.17.64-3-.17-4.1-1.22-1.44-1.44-1.05-3-1.55-8.31-.44-4.68-.84-4.49-1-8.1a58.5,58.5,0,0,1,.22-7.31C37.52,249.41,38.17,249.93,38,246.67Z"/><path class="cls-15" d="M51.1,219.84s-6.79-24.19-7.22-35.15c0,0,.27-9.47-6-2.62,0,0,1.64-6.12,3.2-8.56,0,0,8.75-.89,11.41,15.41A80.07,80.07,0,0,1,51.1,219.84Z"/><path class="cls-16" d="M27.43,161.16a11,11,0,0,1,9.26,1.15c4.38,2.94,4.91,7.9,4.44,11.2,0,0,8.84-.58,11.41,15.41,0,0-.91,3,6.74,0s24.61-14.69,24.11-18.35S69.59,165,69.59,165c-6.81-1.05-12.29-2.18-16.07-3-9.79-2.19-16-4.23-23.55-1.8A23.47,23.47,0,0,0,27.43,161.16Z"/><path class="cls-17" d="M27.43,161.16s7-7.66,41.08-10.93c0,0,8.81-.78,18.53,7.79,0,0-27.37,2.84-43.95,1.67C43.09,159.69,34.06,158,27.43,161.16Z"/><path class="cls-18" d="M81.07,110.81s.64,13.21-5.13,20.6-9.13,8.82-11.31,11.06-4.27,5,3.88,7.76c0,0,8.64-.36,18.53,7.79,0,0-32.44,2.5-43.95,1.67,0,0,9,2.08,14.14,3.09s27.2,3.47,34.62,4.05,25.71-6.73,30.61-8.81-22.7-.83-27.85-3.08-14-5.4-18.46-6.73-9.31-2.58-7.23-5.16,8.65-8.23,10.23-13.38S82.58,116.23,81.07,110.81Z"/><path class="cls-19" d="M81.07,110.81s1.73,7.14-1.92,18.86c0,0-4,7.66-9,12,0,0-4.15,3.28.91,4.92S93,155,96.53,155.47s19.53-4.69,24-4.35-4.57-7.49-8.07-12.81-6.9-10.89-7.48-15.54-2-9.66-6-11.6A59,59,0,0,1,81.07,110.81Z"/><path class="cls-20" d="M95.15,149.7s15.84-1.16,16.5-5.15-6.57-8.73-7.56-12.39-1.25-14.63-3-16.71a21,21,0,0,0-5.27-3.93,59.61,59.61,0,0,1-12.11-.34s1.42,19.82-1.32,23S77.07,147.71,95.15,149.7Z"/><path class="cls-21" d="M99,111.17a12.34,12.34,0,0,1,5.54,8.73c.64,5.86,2.44,11.65,8,18.41s10.23,11.14,8.07,12.81c0,0-1-.86-9.75,1.61s-13.09,3-14.27,2.74c0,0,3.77,1.69,25.24,1.62,0,0,11.71-4.56,7.49-9.55s-9.79-5.07-14.2-10.64-7.73-13.8-7.73-15.46-1.61-8.36-1.85-11.62A41.19,41.19,0,0,1,99,111.17Z"/><path class="cls-22" d="M105.48,109.82s.52,7.35,1.85,11.62,3.59,11.88,8.86,16.75,10,5.78,13.07,9.35-3.77,7.54-7.49,9.55c0,0,2-.07,0,1.22,0,0,32.36-1.62,38.85,3.45s9.64,16.46,9.56,22.44,1.41,43.24,1.41,43.24-.41,25-3,36.66S157.46,299.76,156,301.76s-3.49-3.16-11.3-2.16c0,0-4.74-12-5.07-24.28s-1-25.77,0-30.34S147,223,147,223s4.65-9.31,4.65-18.79-.17-19.45-1.16-22.53-1.92-8.15-6.32-9.64-6.42,14.63-5.62,18.7,2.79,11.23,1.71,16.3-7.31,19-8.48,25.1-2.33,23.2-2.49,29.68-6.24,13.8-6.15,20.62,5.81,14.73,7.48,19.75.25,11.18,6.32,11.09,9.72-1.91,11.8-5.07,4.32-2,3.58,1-6.66,12.55-7.24,17.21-1.91,13.22.67,18.46a37.38,37.38,0,0,1,2-13.47c2.5-7.57,8.82-20.54,8.82-20.54S162,295,164,288.79s5.9-14.8,7.56-22.12,1.75-7.73,2.41-19,1-20.45.92-31.09-.5-33.09-.92-37.08-.91-14.38-9.64-21-16.79-10.06-20.53-12.14S127.78,141,123,136.82s-12.22-9.48-13.55-16a43.48,43.48,0,0,1-.8-11.77Z"/><path class="cls-23" d="M147.59,185.31c-.88,0-1.93,3.93-2.27,7-.28,2.57,0,3.61.28,7.76.28,4.92.42,7.38,0,9.75-.2,1.1-1.18,3.88-3.16,9.42a33,33,0,0,0-1.55,6c-.29,1.83-.61,3.92-.11,4.1.8.3,3.45-4.46,5-8.36a50.7,50.7,0,0,0,2.5-8.26c.55-2.48.81-4.47.94-5.49a58.72,58.72,0,0,0,.33-9.64C149.55,196.64,149.08,185.39,147.59,185.31Z"/><path class="cls-24" d="M33.75,264c1,9.89-1.8,12.17.59,15.72a29.19,29.19,0,0,0,6.65,6.4c1,.7,2.29,1.51,2.24,2.58s-1.81,2.14-3,2.49c-2.62.78-5.73-.32-7.82-2.16-2.52-2.24-2.23-4.41-4.57-12.39-.41-1.39.15.61-3.41-10.06-2.68-8-4-12.06-4.24-13-1.18-5-1.23-9.21-1.33-17.71-.07-6.66.23-11.95.5-16.79.44-7.65.74-8.15.92-14.3.1-3.44.32-6.87.41-10.31.17-6.54,0-8.69,1.58-9.72,1.93-1.29,5.1.06,6.74,1.16,2.85,1.92,3.94,5,4.57,7.32,1.95,7.23.35,10.65.33,20,0,8.89,1.42,9.44,1.25,20.29a77.55,77.55,0,0,1-.58,10.56c-.83,5.59-2,8-1.83,13.13C32.88,260.4,33.34,260,33.75,264Z"/><path class="cls-25" d="M160.62,161.76c5.16.18,9.64,16.61,9.56,22.44-.08,6,1.41,43.24,1.41,43.24s-.41,25-3,36.66S157.46,299.76,156,301.76s-3.49-3.16-11.3-2.16c0,0-4.74-12-5.07-24.28s-1-25.77,0-30.34S147,223,147,223a61.49,61.49,0,0,0,4.65-18.79,90.34,90.34,0,0,0-.25-14.65c-.45-5.33-.86-5.48-.91-7.88C150.26,172.32,156.2,161.6,160.62,161.76Z"/><path class="cls-26" d="M157.46,176.72c-1.61.19-2.64,4.75-3.24,7.4a30.7,30.7,0,0,0-.75,5.65c-.27,10,.23,13.35-.08,17.71-.35,4.91-2,9.45-5.24,18.54-2.18,6.07-2.89,6.84-4.32,11.72a80.92,80.92,0,0,0-2.83,14c-1,9.51.89,8.91.5,21.37-.22,7-.93,10.41,1.49,14.3.44.69,3,4.77,6.49,4.74s5.79-3.94,7.9-7.48c3-5.06,7.5-11.5,5.9-18.54-.61-2.71-1.43-2.53-2.16-5.82-1.06-4.73-.13-8.45.66-12.14,0,0,1.63-7.57,2.91-18.21.47-3.86.51-8.14.58-16.71.15-16.6-.74-21-1.33-23.36C162.5,184,159.61,176.47,157.46,176.72Z"/><path class="cls-27" d="M150,229.35c-1.09-.24-3.12,4.87-4.08,7.73s-1.71,6.1-2.41,14.13c-.91,10.5-.61,16.21,1.08,21.87,1.26,4.19,2.08,4.33,2.33,4.32,1.19-.07,1.88-4.56,2.16-6.4.55-3.54.21-4.77.59-8,.44-3.73,1.16-4.31,1.74-7.4.84-4.49-.21-5.8-.75-13.39C150,233.73,151,229.56,150,229.35Z"/><path class="cls-28" d="M150.48,181.71s1.91-18.79,10.14-20c0,0-4.62-5.66-38.85-3.45,0,0-7.73,3.12-11.47,4.37s27.29-1.19,28,4.18-.84,9-7.65,8.37c0,0-1.83,4.65,5.23,12.88,0,0-6.4.92-9.22,2.58s1.08,12.14,5.73,14.38-6,10.56-9.31,10.73,11.87,4.24,14.29,0c0,0,3.06-6.57,3.37-10.31s-.8-10.39-2.16-14.72,1.71-19.2,5.62-18.7S150.48,181.71,150.48,181.71Z"/><path class="cls-29" d="M57.23,162.78s23.66,3.63,26.16,7.79,13,2.74,15.79,1,12.56-7.81,18.21-8.44a55.43,55.43,0,0,1-7.09-.45c-2.06-.42-13,4.65-18.45,4.15S63.17,163.13,57.23,162.78Z"/><path class="cls-30" d="M117.39,163.13s20-1.14,20.87,3.73.33,9.45-7.65,8.37c0,0,0,4.85,1.31,7.15,0,0-21.38,4.07-26.44-2.75S117.39,163.13,117.39,163.13Z"/><path class="cls-31" d="M117.39,163.13s-16.66,10-11.91,16.5,26.44,2.75,26.44,2.75,2.93,4.32,3.92,5.73c0,0-7.31,1.42-9.22,2.58s.35,6.91,1.38,9.73-31.39-9.73-42.37-10.19-32.21,8.27-32.21,8.27-.71-5.79-.88-9.58c0,0,0,3.82,13.8-3.61s17-14.74,17-14.74,6.23,4.24,15.79,1C99.18,171.57,111.32,162.84,117.39,163.13Z"/><path class="cls-32" d="M53.42,198.5s20.57-8.64,32.21-8.27,25.11,6.31,31.76,8.16,9.33,2.62,10.61,2c0,0,2.19,3.9,4.35,4.65s.58,3.44.58,3.44-3.9,6.21-9.89,7.29c0,0,10.46,3.9,14.29,0,0,0-1,5.76-17,4s-27.27-.36-36.58,0-23.37,1-26.57,1.44a10.39,10.39,0,0,1-6.13-1.44S53.79,204.24,53.42,198.5Z"/><path class="cls-33" d="M58.94,202.58c-1.34,4.23,4.29,8.93,4.66,9.23,3.33,2.71,7.05,3.1,10.72,3.49s6.65.06,12.64-.58c4.25-.46,6.32-.91,10.23-.75,2.48.1,2.23.3,5.73.58a58.69,58.69,0,0,0,12.22-.08,27.41,27.41,0,0,0,6.9-1.58c2.1-.86,5.89-2.4,6.07-4.83.14-1.78-1.75-3.25-2.91-4.15-1.36-1.07-4.7-3.26-13.21-3.49-4.52-.13-4.21.47-9.73.49a85.36,85.36,0,0,1-12-.83c-4.45-.55-4.77-.86-11-1.74-7.92-1.13-9.64-1-10.47-.83C66.52,197.82,60.19,198.68,58.94,202.58Z"/><path class="cls-34" d="M52.6,209.81s-1.11,7.59-1.5,10a283.28,283.28,0,0,1,3.85,31c.73,14.16-.91,39.92-4.73,56.55,0,0,6.06,12.22,12.13,13,0,0-9.72-10-9.56-14.38s-.41-8.9,2.08-7.57,10.31,9.48,12.55,4.24-5.57-15.05-7-22.19-2-23.28-2.16-30.52-1.83-18.69-.67-20.82,9.79,3,10.22.71,6.16-10.31-2.07-11.06S52.6,209.81,52.6,209.81Z"/><path class="cls-35" d="M137.33,215.8s-5,12.45-5.56,16.37-1.66,14.93-1.87,18.11-.45,9.86-.62,11.57a29.12,29.12,0,0,1-3.76,11.55s-2.66,6.53-2.39,9.07a43.79,43.79,0,0,0,4.1,12.5c2.33,4.69,3.73,5.38,4.22,11.15s3.18,6.92,3.87,7,7.68.37,12.71-4c0,0,1.58-3.73,4-2.42s-2,7.62-2,7.62-8.71,17-4.3,30.53-23.7,39.32-24.69,37.32-.09-5.73,4.65-11.3,6.74-11.31,8.73-22.37,7.23-19.95,11-27.18.16-8.15-1.83-6.49-11.14,3.58-13.22-1.66-1.33-7.4-4.33-13.05-8.14-10.56-6.81-18,5.57-11.23,5.48-15.71-1.16-4.41-.91-8.57,2.41-9.89,3-15-1.41-6.4-.58-11.31,4.08-14.14,4.08-14.14S135.5,218,137.33,215.8Z"/><path class="cls-36" d="M67.42,302.67s.74-5.26-3-12.15S59,280,58.74,274.49s4.78,6.23,6.77,6.65,7,6.48,7.15,10.72S69.34,301.67,67.42,302.67Z"/><path class="cls-37" d="M75.07,228.85c-5.54,1.23-8.31,1.85-9.72,3.91-.94,1.35-.86,2.73.08,8.89,1.66,10.83,1.94,9.9,2,12.22.17,6.75-2.37,7.46-2.07,15,.13,3.25.3,6.52,2.57,9.31.67.82,2.54,2.85,7.57,4.15,7.4,1.93,10-.73,22.53-1.58,7.4-.5,9.54.23,12.47-1.91,3.19-2.32,4.36-5.87,5.49-9.31,1.32-4,1.45-7.56,1.66-14.46.21-7.07-.33-7.4.16-12.14.71-6.72,1.92-7.29,1.17-9.48-2.37-6.91-16.69-7.81-18.37-7.9-4.06-.21-3.6.52-20.29,2.41C80.23,227.94,78,228.19,75.07,228.85Z"/><path class="cls-38" d="M83.22,232.67c-2.91,1-7.52,2.57-9.48,6.65-1.2,2.52-.28,3.64.58,11.81,1,9.72.11,11.68,2.33,14.38s5.28,3.43,8.23,4.16c2.26.55,8.56,2.11,14.47-1.42,1.31-.78,5.38-3.2,6.57-7.89,1-3.8-.49-7.08-1.58-9.56-2.15-4.87-4.07-4.58-6.74-9.73s-1.67-7.28-4.07-8.9C90.54,230.17,86.32,231.61,83.22,232.67Z"/><path class="cls-39" d="M96.61,284.55c-.51-1.09,1.59-3.4,5.81-8,5.27-5.72,8.28-8.05,11.64-9.81,2-1,5-2.59,6.24-1.5.33.3.72,1-.17,4.66-1.16,4.8-1.87,7.78-4.57,10.47a15.62,15.62,0,0,1-5.74,3.49C104.81,285.91,97.61,286.73,96.61,284.55Z"/><path class="cls-14" d="M32.15,311s9.75,26.12,12.74,30.33c0,0-7.31-7.76-9-13.08S32.15,311,32.15,311Z"/><path class="cls-40" d="M155,314.18s-11.16,20.11-9.25,30.73c0,0,1.46-9,4.51-15.37S155,316.06,155,314.18Z"/><path class="cls-41" d="M146,350.33s.69-1.17-.27-5.42c0,0,2.37-13.42,6-18.7,0,0,3.42-8.93,3.29-12,0,0-2.35,15.73-3.79,22.72s-3.16,14.74-5.68,20.61-9,29.27-9.07,33.37,5.88-31,7.54-35A42.8,42.8,0,0,0,146,350.33Z"/><path class="cls-42" d="M102.27,303s4.86-2.52,13.92.56,12,1.85,12,1.85,1.88,9.36,4.91,10.56,8.64.32,10.5-1.07,4.54-2.17,3.14,3.32-6.71,12.06-9,19-4.22,17.57-5.58,21.48-2.12,8.55-9.83,16.94a11.28,11.28,0,0,0-1.27,6.62,51.53,51.53,0,0,0,10.32-8.3l3.67-4.09s-2.91,12.5-5.35,22.92-6.2,28.93-6.2,36.92-3.44,27.93-3.55,37.57-.78,30.6-.67,44.78.56,39.36,2.11,43.79c0,0-9.42-11.75-8.42-23.5s.88-48.88.88-48.88.56-14.19,1.78-28.49,1.44-29.49,2.32-38.91,4-27.16,3.33-28.38-3.66-6.54-1.66-12.52,4.32-10.31,4-12.64-2.66-6.43-.78-11.86,7.54-7,8.42-10.42,2.78-9.09,2.78-9.09a13.81,13.81,0,0,1-12.09-3.88c-5.65-5.43-3.77-16.18-3.77-16.18S109,308,98.32,315c0,0,4.62-6.43,7.91-7.54s-18.1,1.17-46-1.08c0,0-.06-3.49,3.08-2.91s1.79,1.16,9.06,1.58S98.35,304.44,102.27,303Z"/><path class="cls-43" d="M62.35,320.38s-5.74-1.48-12.13-13c0,0-5.33-6.65-12.2-1.33s4.77,20.08,4.77,20.08a84,84,0,0,1,9.75,33.46c1.56,19.73,8.54,26.94,9,37s5.77,45.34,6.54,57.87,3.44,56,2.77,69.61-2.88,11.3-1.66,20.39,3.66,9.87,8.54,8.87,7.75-1.88,20.17,1.44,14.63,3.88,21.17,8.09A15.14,15.14,0,0,0,111,550.06c-8.2-4.33-18.62-3.66-24.39-5.55s-10-3.54-10.86-9.64-.33-8-.33-23.17-2-70.61-3.77-85.68-3.55-36-6.32-43.68-6-17.4-4.32-24.38-2.66-17.52-7.65-25.5-8.65-12.08-5.21-14.52S54.87,321.82,62.35,320.38Z"/><path class="cls-44" d="M121.93,327.25c-5.65-5.43-3.77-16.18-3.77-16.18S109,308,98.32,315c0,0,4.62-6.43,7.91-7.54s-18.1,1.17-46-1.08c0,0-.22,11.28,2.16,14.05-7.48,1.44-10.8-4.88-14.24-2.44s.22,6.54,5.21,14.52S62.63,351,61,358s1.55,16.74,4.32,24.38,4.55,28.6,6.32,43.68,3.77,70.5,3.77,85.68-.56,17.07.33,23.17,5.1,7.76,10.86,9.64,16.19,1.22,24.39,5.55a14.74,14.74,0,0,1,6.77,7.19l1.32,5.66a14.78,14.78,0,0,0-.77-4.22c-1-5.54-3-15.8-5.32-26.37q4.07-.63.88-48.88s.56-14.19,1.78-28.49,1.44-29.49,2.32-38.91,4-27.16,3.33-28.38-3.66-6.54-1.66-12.52,4.32-10.31,4-12.64-2.66-6.43-.78-11.86,7.54-7,8.42-10.42,2.78-9.09,2.78-9.09A13.81,13.81,0,0,1,121.93,327.25Z"/><path class="cls-45" d="M53.54,322.38c.83-.66,3.78,5.05,10.09,6.54s10.21-2.7,14.3-.12c.68.44,1.54,1.17,3.77,6.32,4,9.4,3,11.26,5.54,15.08a20.92,20.92,0,0,0,12.3,8.53c6.86,1.61,11.06-1.71,14.75,1.44,2.26,1.95,2.71,4.95,2.88,6.1.69,4.66-1.93,6.67-2.88,11.64-1.15,6,2,6.71,1.88,13.52-.08,7.34-3.72,9-6,18.07-1.35,5.45-1.13,9.19-1,15.63.32,15.8-.75,7.25-.78,39.91,0,20.84,0,31.26.33,33.58,1.3,8.44,0,17.09.56,25.61a11,11,0,0,1-1.67,7.31c-.32.46-1.5,2-6.31,4s-7.59,3.15-11.53,2.78c-1.88-.18-6.75-.65-9.42-4.33-2.06-2.83-1.78-6.13-1.33-10.64.57-5.87,2-6.94,2.66-11.19,1.19-7.28-2.11-8.72-3.33-19.85-.74-6.78.51-6,0-15.85-.46-8.9-1.51-10-1.88-17.95-.31-6.62.37-6.89.66-17.07a195.57,195.57,0,0,0-.55-23.95c-.51-5.67-1.3-10.73-2.88-20.84-1-6.09-1.43-9.13-1.89-11.19-3-13.36-5.83-13.71-6.54-21.84-.75-8.66,2.36-10.12.22-17.18-.43-1.44-.78-2.11-5.65-11C54.63,325.94,52.93,322.86,53.54,322.38Z"/><path class="cls-46" d="M63,331.8c.66-.76,4.52,1.23,7.21,3.43a23,23,0,0,1,7.31,12c1.2,4.13,1.63,9.07.78,9.31s-2.12-4.58-6.32-11.53C66.91,336.65,62.18,332.71,63,331.8Z"/><path class="cls-47" d="M79.26,379.46c3.5-4.33,13.6-1.21,15.74-.55,1.3.4,13.43,4.3,14.63,12.41.48,3.27-1.19,4.64-3,9.31-2.84,7.36-1.1,10.16-1.44,28.93-.12,6.12-.39,10.74-.89,19.18-.71,12-1.15,14.34-1,20.73.2,8.46,1.06,8.07,1.33,16.63.31,9.93-.86,9.92-1.11,22.72-.22,12,.76,14.47-1.77,17.51-3.57,4.31-11.27,6.26-15.41,3.22a9.11,9.11,0,0,1-3.1-5.43c-1.67-6.46,1.94-10.1,3-17.3.68-4.64-.59-4.7-2.33-16.62A203.51,203.51,0,0,1,82.14,469c-.13-5.31.39-11.56,1.44-23.84,1.58-18.49,2.36-21.23,1.66-28.82A129.26,129.26,0,0,0,82.8,401.3C79.76,387,76.73,382.59,79.26,379.46Z"/><path class="cls-48" d="M116.39,635.3a29,29,0,0,0-10.64,5.32c-9.62,8.07-6,25.26-4.43,56.09.39,7.63,1.13,22.42.66,41.45-.42,16.92,1.91,33.91.44,50.77-.55,6.35-1.43,13.59,2.89,17.29,3.1,2.67,6.36,1.32,21.06.89,13.7-.4,16.32.61,19.06-1.77,5.21-4.54,3-14.43,1.56-22.62-.5-2.86-1.22-18.76-2.65-50.56-1.26-27.86,2.36-45.12-1.57-75.8C142,650.42,140.46,640,133,636,126.71,632.55,118.09,634.84,116.39,635.3Z"/><polygon class="cls-49" points="92.09 0 91.31 14.11 92.23 35.61 95.82 35.61 99.5 26.61 92.09 0"/><polygon class="cls-50" points="87.13 35.06 82.54 26.28 90.48 0 92.09 0 91.31 14.11 90.87 35.31 87.13 35.06"/></g></g></svg>